<svg xmlns="http://www.w3.org/2000/svg" viewBox="0 0 394.52 44.6"><defs><style>.cls-1{fill:#fff;}</style></defs><title>philosophie-logotype-wh</title><g id="Layer_2" data-name="Layer 2"><g id="Layer_1-2" data-name="Layer 1"><path class="cls-1" d="M152.85,44.6c-3.61-.85-7.35-1.34-10.78-2.65a9.89,9.89,0,0,1-6.29-11.27c1-6,2.12-11.95,3.24-17.92C140.22,6.34,144.09,2.4,150.41,1,155.92-.21,161.5-.5,167,1.15c6.85,2.06,9.65,6.61,8.56,13.66q-1.23,8-2.79,16c-1.52,7.83-5.35,11.49-13.28,12.75-2.13.34-4.3.43-6.45.63Zm.55-10.24c5.71,0,7.36-1.45,8.29-6.77.64-3.6,1.06-7.26,2-10.78,1.29-4.91-.43-7.44-6.59-7a18.5,18.5,0,0,0-2.23.22c-2.06.45-3.9,1.38-4.35,3.6q-1.62,8.18-2.94,16.42c-.36,2.3,1,3.58,3.16,4A21.67,21.67,0,0,0,153.4,34.36Z"/><path class="cls-1" d="M231.36,44.49c-3.39-.7-6.91-1-10.15-2.18-5.37-1.91-7.84-6.44-6.94-12.08s1.91-11.49,3.09-17.19c1.57-7.6,6.18-11.59,13.87-12.49,5.17-.61,10.3-.87,15.28,1,5.62,2.08,8.37,6.34,7.54,12.25-.87,6.26-2,12.49-3.25,18.68-1.42,6.89-6.36,10-12.88,11.08-2.13.35-4.29.43-6.44.64Zm.38-10.14c5.57.17,7.48-1.39,8.42-6.85.66-3.84,1.38-7.68,2-11.53.74-4.38-.79-6.19-5.27-6.23a20.57,20.57,0,0,0-2.48.21c-3.79.38-5.26,1.74-5.94,5.48-.73,4.09-1.44,8.18-2.18,12.26C225.4,32.76,226.56,34.19,231.74,34.35Z"/><path class="cls-1" d="M66.94,43.21c1-5.63,1.85-10.77,2.77-16.07H55.63c-.85,4.73-1.78,9.37-2.49,14-.24,1.58-.82,2.12-2.38,2.07-3.14-.09-6.29,0-9.63,0,1.93-10.92,3.8-21.47,5.66-32,.5-2.79,1-5.57,1.46-8.36.21-1.39.78-2,2.27-1.94,3.06.11,6.13,0,9.67,0-.93,5.46-1.81,10.63-2.72,16h14c.86-4.73,1.77-9.38,2.51-14.06.23-1.46.79-2,2.24-1.95,3.15.07,6.29,0,9.74,0-1.1,6.27-2.13,12.22-3.18,18.17-1.27,7.21-2.63,14.41-3.78,21.64-.32,2-1.1,2.63-3.06,2.53C73.11,43.1,70.21,43.21,66.94,43.21Z"/><path class="cls-1" d="M326,16.88c.85-4.66,1.75-9.23,2.47-13.82.26-1.65.92-2.24,2.59-2.18,3.05.11,6.1,0,9.4,0-1.41,8-2.76,15.64-4.1,23.25-1,5.41-2,10.81-2.81,16.24-.33,2.33-1.26,3-3.54,2.87-2.71-.21-5.45-.05-8.57-.05.94-5.54,1.82-10.73,2.72-16.08h-14.1c-.83,4.66-1.74,9.22-2.42,13.81-.27,1.8-1,2.38-2.75,2.31-3-.13-5.95,0-9.27,0,.91-5.23,1.75-10.12,2.62-15,1.46-8.28,3-16.55,4.38-24.84.3-1.76.85-2.63,2.83-2.52,3,.17,5.95.05,9.2.05-.95,5.51-1.83,10.64-2.75,16Z"/><path class="cls-1" d="M0,43.21c1.12-6.43,2.16-12.47,3.23-18.5C4.5,17.51,5.85,10.32,7,3.1,7.31,1.46,7.91.86,9.59.88c6.32.08,12.65-.09,19,.1A27.31,27.31,0,0,1,36.1,2.34a6.46,6.46,0,0,1,4.78,7.09A109.83,109.83,0,0,1,38,24.8c-1.05,4-4.26,6.22-8.25,6.68a135.42,135.42,0,0,1-13.67.69c-1.91,0-2.9.45-3.06,2.53s-.75,4.25-1,6.4c-.18,1.49-.72,2.2-2.35,2.14C6.53,43.14,3.39,43.21,0,43.21ZM15.25,22.88c3.35,0,6.23.08,9.11,0A3.54,3.54,0,0,0,28,20c.46-2.19.78-4.41,1.15-6.61.34-2-.62-3-2.55-3.09-2.57-.08-5.14-.1-7.71,0a2,2,0,0,0-1.57,1.11C16.53,15.1,15.94,18.85,15.25,22.88Z"/><path class="cls-1" d="M266.06,43H254.52c.89-5,1.73-9.84,2.58-14.65,1.49-8.43,3-16.86,4.46-25.31.27-1.66.92-2.21,2.57-2.19,6.32.08,12.65-.06,19,.09a24.3,24.3,0,0,1,6.84,1.12c3.91,1.26,5.85,3.9,5.41,7.94a88.65,88.65,0,0,1-2.63,14.19c-1.54,5.5-6.08,7.41-11.33,7.76-3.65.25-7.32.27-11,.2-1.84,0-2.69.49-2.91,2.42C267.18,37.4,266.57,40.16,266.06,43Zm3.61-20c2.69,0,5.07,0,7.46,0,3.93-.09,4.93-1,5.68-4.79.3-1.55.55-3.11.82-4.66.37-2.08-.52-3.24-2.61-3.31-2.57-.08-5.15-.09-7.73,0a2.07,2.07,0,0,0-1.56,1.13C271,15.16,270.38,18.92,269.67,23Z"/><path class="cls-1" d="M216.22,1c-1.47,3-2.7,5.71-4.16,8.29-.3.55-1.46.83-2.25.86-4.65.18-9.31.24-14,.35-2.09,0-3.13,1.23-3.55,3.19-.37,1.69,0,2.69,1.9,3,3.5.66,7,1.26,10.46,2.26,4.45,1.3,5.83,3.45,5.26,8a52.43,52.43,0,0,1-1.77,8,11.11,11.11,0,0,1-9.18,8.2c-8.18,1.5-16.42.93-24.63.14-.22,0-.41-.25-.58-.36,1.39-2.77,2.7-5.54,4.2-8.21.27-.49,1.32-.73,2-.75,4.73-.17,9.47-.25,14.21-.36,2.63-.07,3.57-1.76,3.84-4.07s-1.51-2.92-3.21-3.38c-3.36-.91-6.77-1.66-10.13-2.59-3-.82-4.6-3-4.23-6a53.76,53.76,0,0,1,2.45-11.11c1.4-3.93,5-5.55,8.91-5.85C196.54.31,201.29.3,206,.34,209.4.37,212.77.74,216.22,1Z"/><path class="cls-1" d="M371.94,34c4.38,0,8.44.07,12.5,0,1.61,0,2.41.42,2.7,2.08.4,2.27,1.06,4.49,1.66,7H358.71c.83-4.7,1.63-9.26,2.43-13.81q2.31-13,4.59-26.08C366,1.84,366.22.86,368,.88c8.41.08,16.82,0,25.23.06a8.33,8.33,0,0,1,1.31.24C393.2,4,392,6.71,390.61,9.32c-.26.5-1.39.72-2.13.74-3.41.07-6.83.11-10.24,0-1.69-.06-2.42.57-2.59,2.2-.15,1.48-.45,2.94-.74,4.78H388.4c-.54,3-.9,5.63-1.55,8.19-.14.54-1.31,1.12-2,1.15-3.16.12-6.33.14-9.49,0-1.71-.07-2.39.57-2.54,2.2S372.27,32,371.94,34Z"/><path class="cls-1" d="M123.35,1.05,117.8,33.12h11.75c1.15,3.48,2.2,6.67,3.28,10H104.51c.57-3.4,1.08-6.63,1.64-9.85,1.76-10.07,3.58-20.13,5.27-30.22.26-1.58.84-2.07,2.39-2C116.87,1.12,119.94,1.05,123.35,1.05Z"/><path class="cls-1" d="M104.74,1c-.78,4.45-1.49,8.53-2.21,12.6-1.63,9.17-3.31,18.34-4.85,27.53-.28,1.7-.94,2.18-2.57,2.12-3.06-.11-6.13,0-9.44,0l4.1-23.3c1-5.41,2-10.8,2.84-16.22C92.92,1.71,93.5.72,95.74.9,98.61,1.12,101.51,1,104.74,1Z"/><path class="cls-1" d="M359.22,1c-1.5,8.53-2.91,16.56-4.33,24.58C354,30.77,353,36,352.12,41.27c-.24,1.43-.81,2-2.27,1.93-3.07-.09-6.14,0-9.63,0,.7-4.13,1.34-8,2-11.89,1.64-9.26,3.35-18.51,4.9-27.79.32-1.94,1-2.69,3-2.58C353.05,1.08,356,1,359.22,1Z"/></g></g></svg>