<svg xmlns="http://www.w3.org/2000/svg" viewBox="0 0 1243.91 456.05"><defs><style>.cls-1{fill:#e3e3e3;}</style></defs><title>philosophie-is-analysing</title><g id="Layer_2" data-name="Layer 2"><g id="Layer_1-2" data-name="Layer 1"><polygon class="cls-1" points="2.03 337.8 0 456.05 113.36 438.19 115.39 319.94 2.03 337.8"/><polygon class="cls-1" points="5.17 154.46 3.28 264.98 188.49 235.81 185.21 426.87 293.49 409.81 298.66 108.23 5.17 154.46"/><path class="cls-1" d="M384,115.65l43.78-6.9c22.05-3.47,41.58,2,45.43,26.42,4.65,29.56-12.37,45.18-43.53,50.08l-18.38,2.9-.58,38.9L382,231.58Zm41.62,47c12.63-2,18.87-7.07,16.7-20.81-1.53-9.75-8.88-11.7-16.71-10.46l-13.26,2.08-.47,31.35Z"/><path class="cls-1" d="M485.18,99.72,512,95.49l-.69,42.36c3.6-7.28,11.83-14.31,22.85-16,15.82-2.49,23.72,6.09,25.66,18.39.58,3.68.77,9.05.67,17.75l-.83,45.65-26.85,4.23.77-41.88a58.29,58.29,0,0,0-.3-10.27c-.86-5.43-3.73-9.07-9.64-8.14-7.51,1.18-12.68,7.89-12.91,25.12L510,211.42l-26.84,4.23Z"/><path class="cls-1" d="M575.3,117.78l26.84-4.23-1.56,83.6-26.85,4.23Zm.51-33.16,26.84-4.23-.3,22-26.84,4.23Z"/><path class="cls-1" d="M617.32,78.9l26.84-4.23-2,115.93-26.85,4.23Z"/><path class="cls-1" d="M654,155c-4.28-27.17,8.13-53.36,39-58.22,22.37-3.52,37.13,9.06,40.42,30,4.31,27.32-7.33,53.23-38.81,58.19C671.76,188.55,657.33,175.93,654,155Zm51.42-22.84c-1.56-9.91-5.23-15.55-12.42-14.42-11.19,1.76-13.14,18.44-11,31.87,1.59,10.06,5.23,15.55,12.9,14.34C705.93,162.21,707.34,144.14,705.45,132.16Z"/><path class="cls-1" d="M749.87,146c4.67,4.66,14,8.1,23.16,6.66,3.51-.55,8.93-2.55,8.23-7-1.62-10.23-36.93-1.56-40.86-26.48-3-19.34,13.48-31.93,32.33-34.9,15.5-2.44,25.88,0,34.35,4.91L795.46,109c-4.17-3.6-13.26-6.26-21.09-5-4.64.73-8.25,2.77-7.67,6.45,1.59,10.07,37.74,2.57,41.39,25.74,3.12,19.81-12.5,32.92-33.59,36.24-14.7,2.32-27.36-.11-36.54-6.36Z"/><path class="cls-1" d="M814.93,129.65c-4.28-27.17,8.13-53.36,39-58.21,22.37-3.53,37.13,9,40.42,30,4.31,27.33-7.33,53.23-38.81,58.19C832.66,163.21,818.22,150.58,814.93,129.65Zm51.42-22.84c-1.56-9.91-5.23-15.55-12.42-14.42-11.19,1.76-13.15,18.45-11,31.87,1.58,10.07,5.23,15.55,12.9,14.34C866.83,136.87,868.24,118.79,866.35,106.81Z"/><path class="cls-1" d="M906.37,65.63l26.84-4.23-.3,9.54c4-8.15,10.63-13.63,20.22-15.14,14.7-2.31,26,6.88,29.19,27.34,6.6,41.86-15.38,58.26-29.12,60.43-10.23,1.61-16.81-.63-21.41-6l-.7,36.14L904.25,178Zm26,38a57,57,0,0,0,.46,8.12c1.11,7,3.77,12.5,11.12,11.35,9.27-1.46,13.05-13.85,10.46-30.31-1.31-8.31-5.44-13.72-11-12.83-8.15,1.28-10.81,10.38-11,20.88Z"/><path class="cls-1" d="M995.52,19.32l26.84-4.23-.69,42.36c3.6-7.28,11.82-14.31,22.85-16,15.82-2.49,23.72,6.09,25.66,18.39.58,3.68.77,9,.67,17.74L1070,123.2l-26.84,4.23.77-41.88a57,57,0,0,0-.31-10.27c-.85-5.43-3.72-9.07-9.63-8.14-7.51,1.18-12.68,7.89-12.91,25.12l-.77,38.77-26.84,4.23Z"/><path class="cls-1" d="M1085.64,37.39l26.84-4.23-1.57,83.6L1084.07,121Zm.51-33.16L1113,0l-.3,22-26.85,4.23Z"/><path class="cls-1" d="M1149.76,75.43c2.33,12.73,8.26,16.06,15.77,14.87,5.59-.88,9.91-4.67,13.43-11.45l22.59,7.25c-6.63,13-18.17,21.86-34,24.35-25.89,4.08-41.51-8.85-45-31.06-4.13-26.21,6.81-51.35,38.13-56.28,22.37-3.53,35.88,8.43,39.23,29.68a68.15,68.15,0,0,1,.66,14.63Zm-.93-15.25,24.77-3.9a21.68,21.68,0,0,0-.36-4.36c-1.14-6.21-5-9.86-11.7-8.8C1153.07,44.45,1149.63,51.71,1148.83,60.18Z"/><path class="cls-1" d="M397.39,290l26.85-4.22-1.57,83.59-26.85,4.23Zm.51-33.15,26.84-4.23-.3,22-26.84,4.23Z"/><path class="cls-1" d="M444.94,338.19c4.66,4.67,14,8.11,23.15,6.67,3.52-.55,8.94-2.55,8.23-7-1.61-10.22-36.93-1.55-40.85-26.48-3.05-19.33,13.47-31.92,32.33-34.89,15.5-2.44,25.87,0,34.34,4.9l-11.61,19.85c-4.17-3.6-13.27-6.27-21.1-5-4.63.73-8.24,2.77-7.66,6.45,1.58,10.06,37.74,2.57,41.39,25.74,3.12,19.81-12.5,32.91-33.59,36.24-14.71,2.31-27.37-.11-36.54-6.36Z"/><path class="cls-1" d="M583.69,228.4l25.57-4,40.46,109.24-29.56,4.65L613,315.81,576.9,321.5l-8,24.84-30,4.74Zm22.07,66.28c-3.23-11.12-6.28-21.12-9.61-35-3.21,13.93-7.7,25.94-11.32,38.3Z"/><path class="cls-1" d="M659.11,248.78l24.13-3.8,1.63,10.38c4.25-7.38,12.69-15.1,23.72-16.83,15.82-2.5,23.72,6.09,25.66,18.39.57,3.67.77,9.05.66,17.74l-.83,45.66-26.84,4.23.77-41.88a57.93,57.93,0,0,0-.31-10.27c-.86-5.43-3.72-9.08-9.63-8.15-7.51,1.19-12.68,7.9-12.91,25.13l-.77,38.77-26.85,4.22Z"/><path class="cls-1" d="M795.4,299c-4.28,9.19-9.62,14.78-19.69,16.37-15.18,2.39-26.76-7.74-30-28.35-6.19-39.31,14.06-56.26,31.16-59,10.07-1.59,16.77,1.45,21.51,9.71l3.74-11.56,21.1-3.32-1.57,83.59-26.37,4.16Zm0-32.42a45.38,45.38,0,0,0-.62-8.09c-.68-4.31-2.67-10.71-10.66-9.45-9.58,1.51-12.92,14.64-10.68,28.86,1.49,9.43,5.38,14.38,11.61,13.4,6.87-1.08,10.12-10.6,10.29-20.94Z"/><path class="cls-1" d="M838.38,188.28l26.84-4.23-2,115.93-26.85,4.23Z"/><path class="cls-1" d="M879.61,305.58a37.79,37.79,0,0,0,11.54.47c4.48-.7,7.37-3.12,8.38-9.18l-27-81.72,27.65-4.35,13.37,54.71,12.83-58.84,29.24-4.61-28.32,87.32c-6.16,19.15-11.31,33.22-35.6,37.05-3.83.6-12.35,1.62-15.72,1Z"/><path class="cls-1" d="M968.53,255.71c4.67,4.67,14.05,8.1,23.16,6.67,3.52-.55,8.93-2.55,8.23-7-1.61-10.23-36.93-1.55-40.85-26.48C956,209.54,972.54,197,991.4,194c15.5-2.45,25.87,0,34.34,4.9l-11.61,19.84c-4.17-3.6-13.27-6.26-21.1-5-4.63.73-8.24,2.77-7.66,6.44,1.58,10.07,37.74,2.57,41.39,25.74,3.12,19.82-12.5,32.92-33.6,36.24-14.7,2.32-27.36-.11-36.53-6.36Z"/><path class="cls-1" d="M1038,189.1l26.84-4.23-1.57,83.6-26.84,4.23Zm.51-33.16,26.84-4.23-.3,22-26.85,4.23Z"/><path class="cls-1" d="M1079.49,182.56l24.13-3.81,1.63,10.39c4.24-7.38,12.69-15.1,23.72-16.84,15.81-2.49,23.72,6.09,25.65,18.4.58,3.67.78,9.05.67,17.74l-.83,45.66-26.85,4.23.78-41.88a57.93,57.93,0,0,0-.31-10.27c-.86-5.43-3.72-9.08-9.64-8.15-7.5,1.19-12.67,7.9-12.9,25.13l-.77,38.76-26.85,4.23Z"/><path class="cls-1" d="M1178.69,250c5.75,5.32,15.33,7.9,24.44,6.47,9.27-1.46,12.23-6.51,12.45-15.55l.23-7.9c-3.46,6.11-10.42,11.79-20.33,13.35-12.46,2-25.68-4-29.18-26.19-5-31.63,7.93-54.63,30.78-58.23,10.39-1.63,17.59,1.49,21.88,10l3.69-11.88,21.26-3.34-1.45,79.15c-.41,21.35-9.27,36.83-36.27,41.09-20.77,3.27-34.72-1.08-41.6-5.24Zm37.66-47.85a66.11,66.11,0,0,0-.61-9.08c-.53-3.35-2.56-11.06-10.71-9.77s-13.66,11-10.87,28.73c1.44,9.11,5.82,13,11.25,12.15,7.35-1.16,10.77-8.58,11-20.89Z"/></g></g></svg>